<svg width="24" height="24" viewBox="0 0 24 24" fill="none" xmlns="http://www.w3.org/2000/svg">
<path d="M16.8 16.8C15.912 16.8 15.2 17.512 15.2 18.4C15.2 18.8243 15.3686 19.2313 15.6686 19.5314C15.9687 19.8314 16.3757 20 16.8 20C17.2243 20 17.6313 19.8314 17.9314 19.5314C18.2314 19.2313 18.4 18.8243 18.4 18.4C18.4 17.512 17.68 16.8 16.8 16.8ZM4 4V5.6H5.6L8.48 11.672L7.392 13.632C7.272 13.856 7.2 14.12 7.2 14.4C7.2 14.8243 7.36857 15.2313 7.66863 15.5314C7.96869 15.8314 8.37565 16 8.8 16H18.4V14.4H9.136C9.08296 14.4 9.03209 14.3789 8.99458 14.3414C8.95707 14.3039 8.936 14.253 8.936 14.2C8.936 14.16 8.944 14.128 8.96 14.104L9.68 12.8H15.64C16.24 12.8 16.768 12.464 17.04 11.976L19.904 6.8C19.96 6.672 20 6.536 20 6.4C20 6.18783 19.9157 5.98434 19.7657 5.83431C19.6157 5.68429 19.4122 5.6 19.2 5.6H7.368L6.616 4M8.8 16.8C7.912 16.8 7.2 17.512 7.2 18.4C7.2 18.8243 7.36857 19.2313 7.66863 19.5314C7.96869 19.8314 8.37565 20 8.8 20C9.22435 20 9.63131 19.8314 9.93137 19.5314C10.2314 19.2313 10.4 18.8243 10.4 18.4C10.4 17.512 9.68 16.8 8.8 16.8Z" fill="#999999"/>
</svg>
