<svg width="24" height="24" viewBox="0 0 24 24" fill="none" xmlns="http://www.w3.org/2000/svg">
<path d="M12.0018 15.103C11.2384 15.103 10.5062 14.7997 9.96637 14.2599C9.42654 13.72 9.12327 12.9879 9.12327 12.2244C9.12327 11.461 9.42654 10.7288 9.96637 10.189C10.5062 9.64915 11.2384 9.34588 12.0018 9.34588C12.7653 9.34588 13.4974 9.64915 14.0373 10.189C14.5771 10.7288 14.8804 11.461 14.8804 12.2244C14.8804 12.9879 14.5771 13.72 14.0373 14.2599C13.4974 14.7997 12.7653 15.103 12.0018 15.103ZM18.1126 13.0222C18.1455 12.759 18.1701 12.4958 18.1701 12.2244C18.1701 11.953 18.1455 11.6816 18.1126 11.402L19.8479 10.0614C20.0042 9.93803 20.0453 9.71598 19.9466 9.53504L18.3017 6.68939C18.203 6.50845 17.981 6.43443 17.8 6.50845L15.7522 7.33089C15.3245 7.01014 14.8804 6.73051 14.3622 6.5249L14.0579 4.34543C14.025 4.14804 13.8523 4 13.6467 4H10.3569C10.1513 4 9.97861 4.14804 9.94571 4.34543L9.64141 6.5249C9.12327 6.73051 8.67915 7.01014 8.25148 7.33089L6.2036 6.50845C6.02266 6.43443 5.8006 6.50845 5.70191 6.68939L4.05702 9.53504C3.9501 9.71598 3.99945 9.93803 4.15571 10.0614L5.89107 11.402C5.85817 11.6816 5.8335 11.953 5.8335 12.2244C5.8335 12.4958 5.85817 12.759 5.89107 13.0222L4.15571 14.3874C3.99945 14.5108 3.9501 14.7329 4.05702 14.9138L5.70191 17.7595C5.8006 17.9404 6.02266 18.0062 6.2036 17.9404L8.25148 17.1097C8.67915 17.4387 9.12327 17.7183 9.64141 17.924L9.94571 20.1034C9.97861 20.3008 10.1513 20.4489 10.3569 20.4489H13.6467C13.8523 20.4489 14.025 20.3008 14.0579 20.1034L14.3622 17.924C14.8804 17.7101 15.3245 17.4387 15.7522 17.1097L17.8 17.9404C17.981 18.0062 18.203 17.9404 18.3017 17.7595L19.9466 14.9138C20.0453 14.7329 20.0042 14.5108 19.8479 14.3874L18.1126 13.0222Z" fill="#999999"/>
</svg>
