<svg width="188" height="126" viewBox="0 0 188 126" fill="none" xmlns="http://www.w3.org/2000/svg">
<path d="M77.5781 46.1875H81.7969C93.2969 46.1875 100.156 50.0938 102.375 57.9062C103.125 60.4375 103.5 63.3594 103.5 66.6719V94H77.5781V46.1875ZM42.7969 46.1875H47.0156C58.5156 46.1875 65.375 50.0938 67.5938 57.9062C68.3438 60.4375 68.7188 63.3594 68.7188 66.6719V94H42.7969V46.1875ZM7.92188 46.1875H33.9844V94H7.92188V46.1875ZM152.25 46.1875H177.281V95.7344C177.281 99.0781 177.078 102.109 176.672 104.828C176.266 107.547 175.406 109.875 174.094 111.812C171.344 115.875 166.172 117.906 158.578 117.906H152.25V46.1875ZM117.562 70.6562C117.562 67.2188 118.016 64.0312 118.922 61.0938C119.828 58.125 121.234 55.5312 123.141 53.3125C127.266 48.5625 133.172 46.1875 140.859 46.1875H144.469V94H142.031C134.156 94 128.062 91.8438 123.75 87.5312C119.625 83.4062 117.562 77.7812 117.562 70.6562ZM122.812 108.812C122.812 107.438 123.141 106.203 123.797 105.109C124.453 104.047 125.359 103.156 126.516 102.438C128.922 100.938 132.016 100.188 135.797 100.188C139.578 100.188 142.781 100.938 145.406 102.438C148.156 104 149.531 106.109 149.531 108.766C149.531 111.453 148.297 113.594 145.828 115.188C143.453 116.719 140.391 117.484 136.641 117.484C132.766 117.484 129.531 116.719 126.938 115.188C124.188 113.562 122.812 111.438 122.812 108.812Z" fill="#CACACA"/>
</svg>
