<svg width="24" height="24" viewBox="0 0 24 24" fill="none" xmlns="http://www.w3.org/2000/svg">
<path d="M5.68421 19C5.22105 19 4.82456 18.8368 4.49474 18.5104C4.16491 18.184 4 17.7917 4 17.3333V5.66667C4 5.20833 4.16491 4.81597 4.49474 4.48958C4.82456 4.16319 5.22105 4 5.68421 4H17.4737C17.9368 4 18.3333 4.16319 18.6632 4.48958C18.993 4.81597 19.1579 5.20833 19.1579 5.66667H12.4211C11.4246 5.66667 10.614 5.97569 9.98947 6.59375C9.36491 7.21181 9.05263 8.01389 9.05263 9V14C9.05263 14.9861 9.36491 15.7882 9.98947 16.4063C10.614 17.0243 11.4246 17.3333 12.4211 17.3333H19.1579C19.1579 17.7917 18.993 18.184 18.6632 18.5104C18.3333 18.8368 17.9368 19 17.4737 19H5.68421ZM12.4211 15.6667C11.9579 15.6667 11.5614 15.5035 11.2316 15.1771C10.9018 14.8507 10.7368 14.4583 10.7368 14V9C10.7368 8.54167 10.9018 8.14931 11.2316 7.82292C11.5614 7.49653 11.9579 7.33333 12.4211 7.33333H18.3158C18.7789 7.33333 19.1754 7.49653 19.5053 7.82292C19.8351 8.14931 20 8.54167 20 9V14C20 14.4583 19.8351 14.8507 19.5053 15.1771C19.1754 15.5035 18.7789 15.6667 18.3158 15.6667H12.4211ZM14.9474 12.75C15.3123 12.75 15.614 12.6319 15.8526 12.3958C16.0912 12.1597 16.2105 11.8611 16.2105 11.5C16.2105 11.1389 16.0912 10.8403 15.8526 10.6042C15.614 10.3681 15.3123 10.25 14.9474 10.25C14.5825 10.25 14.2807 10.3681 14.0421 10.6042C13.8035 10.8403 13.6842 11.1389 13.6842 11.5C13.6842 11.8611 13.8035 12.1597 14.0421 12.3958C14.2807 12.6319 14.5825 12.75 14.9474 12.75Z" fill="#999999"/>
</svg>
