<svg width="127" height="99" viewBox="0 0 127 99" fill="none" xmlns="http://www.w3.org/2000/svg">
<g filter="url(#filter0_i_73_68)">
<path d="M51.7188 31.125H54.5312C62.1979 31.125 66.7708 33.7292 68.25 38.9375C68.75 40.625 69 42.5729 69 44.7812V63H51.7188V31.125ZM28.5312 31.125H31.3438C39.0104 31.125 43.5833 33.7292 45.0625 38.9375C45.5625 40.625 45.8125 42.5729 45.8125 44.7812V63H28.5312V31.125ZM5.28125 31.125H22.6562V63H5.28125V31.125ZM101.5 31.125H118.188V64.1562C118.188 66.3854 118.052 68.4062 117.781 70.2188C117.51 72.0312 116.938 73.5833 116.062 74.875C114.229 77.5833 110.781 78.9375 105.719 78.9375H101.5V31.125ZM78.375 47.4375C78.375 45.1458 78.6771 43.0208 79.2812 41.0625C79.8854 39.0833 80.8229 37.3542 82.0938 35.875C84.8438 32.7083 88.7812 31.125 93.9062 31.125H96.3125V63H94.6875C89.4375 63 85.375 61.5625 82.5 58.6875C79.75 55.9375 78.375 52.1875 78.375 47.4375ZM81.875 72.875C81.875 71.9583 82.0938 71.1354 82.5312 70.4062C82.9688 69.6979 83.5729 69.1042 84.3438 68.625C85.9479 67.625 88.0104 67.125 90.5312 67.125C93.0521 67.125 95.1875 67.625 96.9375 68.625C98.7708 69.6667 99.6875 71.0729 99.6875 72.8438C99.6875 74.6354 98.8646 76.0625 97.2188 77.125C95.6354 78.1458 93.5938 78.6562 91.0938 78.6562C88.5104 78.6562 86.3542 78.1458 84.625 77.125C82.7917 76.0417 81.875 74.625 81.875 72.875Z" fill="#CACACA"/>
</g>
<defs>
<filter id="filter0_i_73_68" x="5.28125" y="31.125" width="112.906" height="51.8125" filterUnits="userSpaceOnUse" color-interpolation-filters="sRGB">
<feFlood flood-opacity="0" result="BackgroundImageFix"/>
<feBlend mode="normal" in="SourceGraphic" in2="BackgroundImageFix" result="shape"/>
<feColorMatrix in="SourceAlpha" type="matrix" values="0 0 0 0 0 0 0 0 0 0 0 0 0 0 0 0 0 0 127 0" result="hardAlpha"/>
<feOffset dy="4"/>
<feGaussianBlur stdDeviation="2"/>
<feComposite in2="hardAlpha" operator="arithmetic" k2="-1" k3="1"/>
<feColorMatrix type="matrix" values="0 0 0 0 0 0 0 0 0 0 0 0 0 0 0 0 0 0 0.25 0"/>
<feBlend mode="normal" in2="shape" result="effect1_innerShadow_73_68"/>
</filter>
</defs>
</svg>
