<svg width="171" height="72" viewBox="0 0 171 72" fill="none" xmlns="http://www.w3.org/2000/svg">
<path d="M70.5781 0.1875H74.7969C86.2969 0.1875 93.1562 4.09375 95.375 11.9062C96.125 14.4375 96.5 17.3594 96.5 20.6719V48H70.5781V0.1875ZM35.7969 0.1875H40.0156C51.5156 0.1875 58.375 4.09375 60.5938 11.9062C61.3438 14.4375 61.7188 17.3594 61.7188 20.6719V48H35.7969V0.1875ZM0.921875 0.1875H26.9844V48H0.921875V0.1875ZM145.25 0.1875H170.281V49.7344C170.281 53.0781 170.078 56.1094 169.672 58.8281C169.266 61.5469 168.406 63.875 167.094 65.8125C164.344 69.875 159.172 71.9062 151.578 71.9062H145.25V0.1875ZM110.562 24.6562C110.562 21.2188 111.016 18.0312 111.922 15.0938C112.828 12.125 114.234 9.53125 116.141 7.3125C120.266 2.5625 126.172 0.1875 133.859 0.1875H137.469V48H135.031C127.156 48 121.062 45.8438 116.75 41.5312C112.625 37.4062 110.562 31.7812 110.562 24.6562ZM115.812 62.8125C115.812 61.4375 116.141 60.2031 116.797 59.1094C117.453 58.0469 118.359 57.1562 119.516 56.4375C121.922 54.9375 125.016 54.1875 128.797 54.1875C132.578 54.1875 135.781 54.9375 138.406 56.4375C141.156 58 142.531 60.1094 142.531 62.7656C142.531 65.4531 141.297 67.5938 138.828 69.1875C136.453 70.7188 133.391 71.4844 129.641 71.4844C125.766 71.4844 122.531 70.7188 119.938 69.1875C117.188 67.5625 115.812 65.4375 115.812 62.8125Z" fill="#CACACA"/>
</svg>
