<svg width="188" height="154" viewBox="0 0 188 154" fill="none" xmlns="http://www.w3.org/2000/svg">
<path d="M77.5781 46.1875H81.7969C93.2969 46.1875 100.156 50.0938 102.375 57.9062C103.125 60.4375 103.5 63.3594 103.5 66.6719V94H77.5781V46.1875ZM42.7969 46.1875H47.0156C58.5156 46.1875 65.375 50.0938 67.5938 57.9062C68.3438 60.4375 68.7188 63.3594 68.7188 66.6719V94H42.7969V46.1875ZM7.92188 46.1875H33.9844V94H7.92188V46.1875ZM152.25 46.1875H177.281V95.7344C177.281 99.0781 177.078 102.109 176.672 104.828C176.266 107.547 175.406 109.875 174.094 111.812C171.344 115.875 166.172 117.906 158.578 117.906H152.25V46.1875ZM117.562 70.6562C117.562 67.2188 118.016 64.0312 118.922 61.0938C119.828 58.125 121.234 55.5312 123.141 53.3125C127.266 48.5625 133.172 46.1875 140.859 46.1875H144.469V94H142.031C134.156 94 128.062 91.8438 123.75 87.5312C119.625 83.4062 117.562 77.7812 117.562 70.6562ZM122.812 108.812C122.812 107.438 123.141 106.203 123.797 105.109C124.453 104.047 125.359 103.156 126.516 102.438C128.922 100.938 132.016 100.188 135.797 100.188C139.578 100.188 142.781 100.938 145.406 102.438C148.156 104 149.531 106.109 149.531 108.766C149.531 111.453 148.297 113.594 145.828 115.188C143.453 116.719 140.391 117.484 136.641 117.484C132.766 117.484 129.531 116.719 126.938 115.188C124.188 113.562 122.812 111.438 122.812 108.812Z" fill="#1A1A1A"/>
<path d="M17.22 106.216C18.116 106.216 18.844 106.501 19.404 107.07C19.9733 107.63 20.258 108.447 20.258 109.52V114H19.292V109.632C19.292 108.801 19.0913 108.167 18.69 107.728C18.2887 107.289 17.7427 107.07 17.052 107.07C16.3333 107.07 15.7593 107.308 15.33 107.784C14.9007 108.26 14.686 108.951 14.686 109.856V114H13.72V109.632C13.72 108.801 13.5193 108.167 13.118 107.728C12.7167 107.289 12.166 107.07 11.466 107.07C10.7473 107.07 10.1733 107.308 9.744 107.784C9.31467 108.26 9.1 108.951 9.1 109.856V114H8.12V106.356H9.1V107.672C9.34267 107.196 9.688 106.837 10.136 106.594C10.584 106.342 11.0833 106.216 11.634 106.216C12.2967 106.216 12.8753 106.375 13.37 106.692C13.874 107.009 14.238 107.476 14.462 108.092C14.6673 107.485 15.0173 107.023 15.512 106.706C16.016 106.379 16.5853 106.216 17.22 106.216ZM25.7805 114.112C25.0618 114.112 24.4131 113.953 23.8345 113.636C23.2651 113.309 22.8125 112.852 22.4765 112.264C22.1498 111.667 21.9865 110.971 21.9865 110.178C21.9865 109.385 22.1545 108.694 22.4905 108.106C22.8265 107.509 23.2838 107.051 23.8625 106.734C24.4411 106.407 25.0898 106.244 25.8085 106.244C26.5271 106.244 27.1758 106.407 27.7545 106.734C28.3425 107.051 28.7998 107.509 29.1265 108.106C29.4625 108.694 29.6305 109.385 29.6305 110.178C29.6305 110.962 29.4625 111.653 29.1265 112.25C28.7905 112.847 28.3285 113.309 27.7405 113.636C27.1525 113.953 26.4991 114.112 25.7805 114.112ZM25.7805 113.258C26.2845 113.258 26.7511 113.146 27.1805 112.922C27.6098 112.689 27.9551 112.343 28.2165 111.886C28.4871 111.419 28.6225 110.85 28.6225 110.178C28.6225 109.506 28.4918 108.941 28.2305 108.484C27.9691 108.017 27.6238 107.672 27.1945 107.448C26.7651 107.215 26.2985 107.098 25.7945 107.098C25.2905 107.098 24.8238 107.215 24.3945 107.448C23.9651 107.672 23.6198 108.017 23.3585 108.484C23.1065 108.941 22.9805 109.506 22.9805 110.178C22.9805 110.85 23.1065 111.419 23.3585 111.886C23.6198 112.343 23.9605 112.689 24.3805 112.922C24.8098 113.146 25.2765 113.258 25.7805 113.258ZM30.9689 110.164C30.9689 109.38 31.1275 108.694 31.4449 108.106C31.7622 107.509 32.1962 107.051 32.7469 106.734C33.3069 106.407 33.9369 106.244 34.6369 106.244C35.3089 106.244 35.9155 106.407 36.4569 106.734C36.9982 107.061 37.3949 107.485 37.6469 108.008V103.64H38.6269V114H37.6469V112.292C37.4135 112.824 37.0309 113.263 36.4989 113.608C35.9669 113.944 35.3415 114.112 34.6229 114.112C33.9229 114.112 33.2929 113.949 32.7329 113.622C32.1822 113.295 31.7482 112.833 31.4309 112.236C31.1229 111.639 30.9689 110.948 30.9689 110.164ZM37.6469 110.178C37.6469 109.562 37.5209 109.021 37.2689 108.554C37.0169 108.087 36.6715 107.728 36.2329 107.476C35.8035 107.224 35.3275 107.098 34.8049 107.098C34.2635 107.098 33.7782 107.219 33.3489 107.462C32.9195 107.705 32.5789 108.059 32.3269 108.526C32.0842 108.983 31.9629 109.529 31.9629 110.164C31.9629 110.789 32.0842 111.34 32.3269 111.816C32.5789 112.283 32.9195 112.642 33.3489 112.894C33.7782 113.137 34.2635 113.258 34.8049 113.258C35.3275 113.258 35.8035 113.132 36.2329 112.88C36.6715 112.628 37.0169 112.269 37.2689 111.802C37.5209 111.335 37.6469 110.794 37.6469 110.178ZM40.4161 110.164C40.4161 109.38 40.5701 108.694 40.8781 108.106C41.1955 107.509 41.6295 107.051 42.1801 106.734C42.7401 106.407 43.3701 106.244 44.0701 106.244C44.7981 106.244 45.4235 106.412 45.9461 106.748C46.4781 107.084 46.8608 107.513 47.0941 108.036V106.356H48.0741V114H47.0941V112.306C46.8515 112.829 46.4641 113.263 45.9321 113.608C45.4095 113.944 44.7841 114.112 44.0561 114.112C43.3655 114.112 42.7401 113.949 42.1801 113.622C41.6295 113.295 41.1955 112.833 40.8781 112.236C40.5701 111.639 40.4161 110.948 40.4161 110.164ZM47.0941 110.178C47.0941 109.562 46.9681 109.021 46.7161 108.554C46.4641 108.087 46.1188 107.728 45.6801 107.476C45.2508 107.224 44.7748 107.098 44.2521 107.098C43.7108 107.098 43.2255 107.219 42.7961 107.462C42.3668 107.705 42.0261 108.059 41.7741 108.526C41.5315 108.983 41.4101 109.529 41.4101 110.164C41.4101 110.789 41.5315 111.34 41.7741 111.816C42.0261 112.283 42.3668 112.642 42.7961 112.894C43.2255 113.137 43.7108 113.258 44.2521 113.258C44.7748 113.258 45.2508 113.132 45.6801 112.88C46.1188 112.628 46.4641 112.269 46.7161 111.802C46.9681 111.335 47.0941 110.794 47.0941 110.178ZM57.3592 106.244C58.0779 106.244 58.7032 106.412 59.2352 106.748C59.7672 107.084 60.1499 107.509 60.3832 108.022V106.356H61.3632V114.196C61.3632 114.896 61.2092 115.517 60.9012 116.058C60.6025 116.599 60.1825 117.015 59.6412 117.304C59.0999 117.603 58.4839 117.752 57.7932 117.752C56.8132 117.752 55.9965 117.519 55.3432 117.052C54.6992 116.585 54.2979 115.951 54.1392 115.148H55.1052C55.2732 115.68 55.5905 116.105 56.0572 116.422C56.5332 116.739 57.1119 116.898 57.7932 116.898C58.2879 116.898 58.7312 116.791 59.1232 116.576C59.5152 116.371 59.8232 116.063 60.0472 115.652C60.2712 115.241 60.3832 114.756 60.3832 114.196V112.306C60.1405 112.829 59.7532 113.263 59.2212 113.608C58.6985 113.944 58.0779 114.112 57.3592 114.112C56.6592 114.112 56.0292 113.949 55.4692 113.622C54.9185 113.295 54.4845 112.833 54.1672 112.236C53.8592 111.639 53.7052 110.948 53.7052 110.164C53.7052 109.38 53.8592 108.694 54.1672 108.106C54.4845 107.509 54.9185 107.051 55.4692 106.734C56.0292 106.407 56.6592 106.244 57.3592 106.244ZM60.3832 110.178C60.3832 109.562 60.2572 109.021 60.0052 108.554C59.7532 108.087 59.4079 107.728 58.9692 107.476C58.5399 107.224 58.0639 107.098 57.5412 107.098C56.9999 107.098 56.5145 107.219 56.0852 107.462C55.6559 107.705 55.3152 108.059 55.0632 108.526C54.8205 108.983 54.6992 109.529 54.6992 110.164C54.6992 110.789 54.8205 111.34 55.0632 111.816C55.3152 112.283 55.6559 112.642 56.0852 112.894C56.5145 113.137 56.9999 113.258 57.5412 113.258C58.0639 113.258 58.5399 113.132 58.9692 112.88C59.4079 112.628 59.7532 112.269 60.0052 111.802C60.2572 111.335 60.3832 110.794 60.3832 110.178ZM64.5805 103.64V114H63.6005V103.64H64.5805ZM66.3517 110.164C66.3517 109.38 66.5057 108.694 66.8137 108.106C67.131 107.509 67.565 107.051 68.1157 106.734C68.6757 106.407 69.3057 106.244 70.0057 106.244C70.7337 106.244 71.359 106.412 71.8817 106.748C72.4137 107.084 72.7964 107.513 73.0297 108.036V106.356H74.0097V114H73.0297V112.306C72.787 112.829 72.3997 113.263 71.8677 113.608C71.345 113.944 70.7197 114.112 69.9917 114.112C69.301 114.112 68.6757 113.949 68.1157 113.622C67.565 113.295 67.131 112.833 66.8137 112.236C66.5057 111.639 66.3517 110.948 66.3517 110.164ZM73.0297 110.178C73.0297 109.562 72.9037 109.021 72.6517 108.554C72.3997 108.087 72.0544 107.728 71.6157 107.476C71.1864 107.224 70.7104 107.098 70.1877 107.098C69.6464 107.098 69.161 107.219 68.7317 107.462C68.3024 107.705 67.9617 108.059 67.7097 108.526C67.467 108.983 67.3457 109.529 67.3457 110.164C67.3457 110.789 67.467 111.34 67.7097 111.816C67.9617 112.283 68.3024 112.642 68.7317 112.894C69.161 113.137 69.6464 113.258 70.1877 113.258C70.7104 113.258 71.1864 113.132 71.6157 112.88C72.0544 112.628 72.3997 112.269 72.6517 111.802C72.9037 111.335 73.0297 110.794 73.0297 110.178ZM85.347 106.216C86.243 106.216 86.971 106.501 87.531 107.07C88.1003 107.63 88.385 108.447 88.385 109.52V114H87.419V109.632C87.419 108.801 87.2183 108.167 86.817 107.728C86.4156 107.289 85.8696 107.07 85.179 107.07C84.4603 107.07 83.8863 107.308 83.457 107.784C83.0276 108.26 82.813 108.951 82.813 109.856V114H81.847V109.632C81.847 108.801 81.6463 108.167 81.245 107.728C80.8436 107.289 80.293 107.07 79.593 107.07C78.8743 107.07 78.3003 107.308 77.871 107.784C77.4416 108.26 77.227 108.951 77.227 109.856V114H76.247V106.356H77.227V107.672C77.4696 107.196 77.815 106.837 78.263 106.594C78.711 106.342 79.2103 106.216 79.761 106.216C80.4236 106.216 81.0023 106.375 81.497 106.692C82.001 107.009 82.365 107.476 82.589 108.092C82.7943 107.485 83.1443 107.023 83.639 106.706C84.143 106.379 84.7123 106.216 85.347 106.216ZM93.9074 114.112C93.1887 114.112 92.5401 113.953 91.9614 113.636C91.3921 113.309 90.9394 112.852 90.6034 112.264C90.2767 111.667 90.1134 110.971 90.1134 110.178C90.1134 109.385 90.2814 108.694 90.6174 108.106C90.9534 107.509 91.4107 107.051 91.9894 106.734C92.5681 106.407 93.2167 106.244 93.9354 106.244C94.6541 106.244 95.3027 106.407 95.8814 106.734C96.4694 107.051 96.9267 107.509 97.2534 108.106C97.5894 108.694 97.7574 109.385 97.7574 110.178C97.7574 110.962 97.5894 111.653 97.2534 112.25C96.9174 112.847 96.4554 113.309 95.8674 113.636C95.2794 113.953 94.6261 114.112 93.9074 114.112ZM93.9074 113.258C94.4114 113.258 94.8781 113.146 95.3074 112.922C95.7367 112.689 96.0821 112.343 96.3434 111.886C96.6141 111.419 96.7494 110.85 96.7494 110.178C96.7494 109.506 96.6187 108.941 96.3574 108.484C96.0961 108.017 95.7507 107.672 95.3214 107.448C94.8921 107.215 94.4254 107.098 93.9214 107.098C93.4174 107.098 92.9507 107.215 92.5214 107.448C92.0921 107.672 91.7467 108.017 91.4854 108.484C91.2334 108.941 91.1074 109.506 91.1074 110.178C91.1074 110.85 91.2334 111.419 91.4854 111.886C91.7467 112.343 92.0874 112.689 92.5074 112.922C92.9367 113.146 93.4034 113.258 93.9074 113.258ZM106.166 106.356V114H105.186V112.656C104.962 113.132 104.616 113.496 104.15 113.748C103.683 114 103.16 114.126 102.582 114.126C101.667 114.126 100.92 113.846 100.342 113.286C99.7632 112.717 99.4738 111.895 99.4738 110.822V106.356H100.44V110.71C100.44 111.541 100.645 112.175 101.056 112.614C101.476 113.053 102.045 113.272 102.764 113.272C103.501 113.272 104.089 113.039 104.528 112.572C104.966 112.105 105.186 111.419 105.186 110.514V106.356H106.166ZM109.383 107.714C109.598 107.238 109.925 106.869 110.363 106.608C110.811 106.347 111.357 106.216 112.001 106.216V107.238H111.735C111.026 107.238 110.457 107.429 110.027 107.812C109.598 108.195 109.383 108.834 109.383 109.73V114H108.403V106.356H109.383V107.714Z" fill="#1A1A1A"/>
</svg>
